<svg width="236.23" height="41.27" viewBox="0 0 236.23 41.27" xmlns="http://www.w3.org/2000/svg"><g id="svgGroup" stroke-linecap="round" fill-rule="evenodd" font-size="9pt" stroke="#6e0909" stroke-width="0.25mm" fill="#d99191" style="stroke:#6e0909;stroke-width:0.25mm;fill:#d99191"><path d="M 228.691 35.664 L 226.211 34.316 A 14.807 14.807 0 0 0 226.849 33.021 A 18.6 18.6 0 0 0 227.246 32.031 A 33.276 33.276 0 0 0 227.956 29.878 A 37.277 37.277 0 0 0 228.105 29.355 Q 228.496 27.949 228.789 26.465 Q 229.082 24.98 229.287 23.506 A 42.97 42.97 0 0 0 229.564 20.993 A 38.771 38.771 0 0 0 229.59 20.645 A 40.152 40.152 0 0 0 229.673 19 A 32.611 32.611 0 0 0 229.688 18.047 A 27.133 27.133 0 0 0 229.678 17.334 A 34.455 34.455 0 0 0 229.648 16.563 Q 229.609 15.762 229.482 14.961 Q 229.355 14.16 229.102 13.428 Q 228.848 12.695 228.408 12.119 Q 227.969 11.543 227.314 11.201 Q 226.66 10.859 225.742 10.859 Q 224.844 10.859 224.209 11.338 A 4.027 4.027 0 0 0 223.361 12.215 A 4.846 4.846 0 0 0 223.125 12.578 A 6.681 6.681 0 0 0 222.595 13.718 A 8.011 8.011 0 0 0 222.412 14.297 Q 222.148 15.254 222.012 16.221 A 22.958 22.958 0 0 0 221.865 17.509 A 19.642 19.642 0 0 0 221.826 18.066 A 38.448 38.448 0 0 0 221.796 18.687 Q 221.787 18.93 221.782 19.146 A 18.408 18.408 0 0 0 221.777 19.551 L 221.777 30.859 L 215.195 30.859 L 215.195 20.352 Q 215.195 19.882 215.205 19.278 A 117.616 117.616 0 0 1 215.215 18.701 A 21.489 21.489 0 0 0 215.219 18.267 Q 215.219 17.596 215.178 16.884 A 26.887 26.887 0 0 0 215.166 16.68 Q 215.098 15.625 214.912 14.58 A 7.798 7.798 0 0 0 214.636 13.477 A 6.218 6.218 0 0 0 214.326 12.715 A 3.748 3.748 0 0 0 213.566 11.655 A 3.522 3.522 0 0 0 213.242 11.377 A 2.497 2.497 0 0 0 212.208 10.923 A 3.494 3.494 0 0 0 211.523 10.859 A 2.617 2.617 0 0 0 210.809 10.953 A 2.077 2.077 0 0 0 210.049 11.348 Q 209.453 11.836 209.053 12.607 A 6.9 6.9 0 0 0 208.603 13.704 A 8.47 8.47 0 0 0 208.428 14.346 A 16.677 16.677 0 0 0 208.096 16.279 A 22.278 22.278 0 0 0 207.996 17.45 A 18.813 18.813 0 0 0 207.969 18.115 A 103.859 103.859 0 0 0 207.96 18.531 Q 207.95 19.086 207.949 19.494 A 34.215 34.215 0 0 0 207.949 19.551 L 207.949 30.859 L 201.328 30.859 L 201.328 8.301 L 203.867 8.301 L 206.289 13.555 A 10.818 10.818 0 0 1 207.15 11.461 A 7.806 7.806 0 0 1 208.877 9.287 A 6.045 6.045 0 0 1 211.463 7.988 Q 212.369 7.769 213.432 7.755 A 11.033 11.033 0 0 1 213.574 7.754 Q 216.211 7.754 217.949 8.848 A 6.06 6.06 0 0 1 219.626 10.449 Q 220.137 11.154 220.539 12.06 A 11.284 11.284 0 0 1 220.684 12.402 A 12.419 12.419 0 0 1 221.563 10.969 A 10.803 10.803 0 0 1 221.943 10.469 A 7.832 7.832 0 0 1 223.381 9.081 A 7.334 7.334 0 0 1 223.486 9.004 A 6.608 6.608 0 0 1 225.371 8.076 A 7.094 7.094 0 0 1 226.786 7.796 A 8.86 8.86 0 0 1 227.656 7.754 A 11.851 11.851 0 0 1 229.418 7.878 Q 230.623 8.059 231.592 8.506 A 7.253 7.253 0 0 1 233.666 9.921 A 6.79 6.79 0 0 1 234.258 10.586 A 8.13 8.13 0 0 1 235.491 12.855 A 9.903 9.903 0 0 1 235.762 13.74 A 14.99 14.99 0 0 1 236.185 16.394 A 18.114 18.114 0 0 1 236.23 17.695 A 21.898 21.898 0 0 1 235.936 21.214 A 25.736 25.736 0 0 1 235.684 22.539 A 29.008 29.008 0 0 1 234.15 27.451 Q 233.164 29.844 231.777 31.973 Q 230.391 34.102 228.691 35.664 Z M 12.441 25.957 L 16.426 21.914 A 9.314 9.314 0 0 0 17.93 24.404 A 11.508 11.508 0 0 0 19.887 26.263 A 10.722 10.722 0 0 0 20.029 26.367 A 10.575 10.575 0 0 0 22.058 27.517 A 9.71 9.71 0 0 0 22.402 27.656 Q 23.633 28.125 24.727 28.125 A 15.92 15.92 0 0 0 26.351 28.045 A 13.388 13.388 0 0 0 27.148 27.939 Q 28.281 27.754 29.121 27.324 A 3.662 3.662 0 0 0 29.991 26.714 A 3.21 3.21 0 0 0 30.439 26.182 A 2.722 2.722 0 0 0 30.833 25.237 Q 30.913 24.872 30.918 24.451 A 4.758 4.758 0 0 0 30.918 24.395 Q 30.918 23.574 30.547 22.988 A 3.548 3.548 0 0 0 29.58 21.982 A 5.895 5.895 0 0 0 28.683 21.465 A 7.034 7.034 0 0 0 28.223 21.27 A 14.363 14.363 0 0 0 26.67 20.771 A 40.865 40.865 0 0 0 25.117 20.4 A 22.348 22.348 0 0 1 24.484 20.253 Q 24.099 20.157 23.77 20.059 A 159.705 159.705 0 0 1 21.986 19.533 A 181.417 181.417 0 0 1 21.367 19.346 A 29.812 29.812 0 0 1 18.906 18.477 A 17.441 17.441 0 0 1 16.611 17.354 Q 15.527 16.719 14.707 15.85 A 6.79 6.79 0 0 1 13.398 13.838 A 5.953 5.953 0 0 1 12.991 12.361 A 7.881 7.881 0 0 1 12.91 11.211 A 12.291 12.291 0 0 1 13.007 9.633 A 8.969 8.969 0 0 1 13.35 8.057 Q 13.789 6.68 14.59 5.664 A 7.528 7.528 0 0 1 16.484 3.955 A 10.336 10.336 0 0 1 18.724 2.895 A 11.493 11.493 0 0 1 18.887 2.842 A 15.034 15.034 0 0 1 21.123 2.314 A 17.008 17.008 0 0 1 21.67 2.236 A 24.152 24.152 0 0 1 24.687 2.051 Q 26.797 2.051 28.525 2.441 A 14.774 14.774 0 0 1 30.97 3.214 A 13.165 13.165 0 0 1 31.719 3.555 Q 33.184 4.277 34.404 5.283 A 19.545 19.545 0 0 1 36.699 7.52 L 32.715 11.563 A 9.189 9.189 0 0 0 31.468 9.095 A 8.706 8.706 0 0 0 31.416 9.023 A 10.376 10.376 0 0 0 30.006 7.45 A 9.332 9.332 0 0 0 29.57 7.08 A 8.551 8.551 0 0 0 27.992 6.073 A 7.647 7.647 0 0 0 27.441 5.83 A 6.51 6.51 0 0 0 26.281 5.487 A 5.225 5.225 0 0 0 25.293 5.391 Q 23.945 5.391 22.813 5.576 A 7.884 7.884 0 0 0 21.852 5.792 Q 21.363 5.937 20.953 6.139 A 4.749 4.749 0 0 0 20.869 6.182 A 3.352 3.352 0 0 0 20.006 6.812 A 3.019 3.019 0 0 0 19.609 7.314 Q 19.172 8.008 19.16 9.025 A 4.885 4.885 0 0 0 19.16 9.082 A 3.556 3.556 0 0 0 19.215 9.722 Q 19.288 10.119 19.456 10.442 A 2.207 2.207 0 0 0 19.492 10.508 A 3.166 3.166 0 0 0 20.381 11.504 A 5.047 5.047 0 0 0 21.382 12.074 A 5.796 5.796 0 0 0 21.641 12.178 Q 22.344 12.441 23.096 12.637 Q 23.848 12.832 24.58 12.979 A 18.427 18.427 0 0 1 25.281 13.132 A 14.292 14.292 0 0 1 25.918 13.301 A 567.241 567.241 0 0 1 27.119 13.643 A 655.554 655.554 0 0 1 28.379 14.004 Q 29.668 14.375 30.918 14.873 Q 32.168 15.371 33.301 16.016 A 8.819 8.819 0 0 1 35.28 17.535 A 8.343 8.343 0 0 1 35.293 17.549 A 6.893 6.893 0 0 1 36.66 19.6 A 5.973 5.973 0 0 1 37.09 21.143 A 7.836 7.836 0 0 1 37.168 22.266 A 12.208 12.208 0 0 1 37.069 23.861 Q 36.955 24.727 36.709 25.469 A 7.944 7.944 0 0 1 35.99 27.057 A 6.804 6.804 0 0 1 35.42 27.871 A 7.559 7.559 0 0 1 33.457 29.57 Q 32.324 30.254 30.986 30.664 Q 29.648 31.074 28.154 31.25 A 25.973 25.973 0 0 1 25.117 31.426 A 23.941 23.941 0 0 1 22.931 31.33 A 19.056 19.056 0 0 1 21.367 31.123 Q 19.648 30.82 18.135 30.166 A 14.63 14.63 0 0 1 15.225 28.477 A 18.879 18.879 0 0 1 13.57 27.089 A 23.881 23.881 0 0 1 12.441 25.957 Z M 56.855 35.664 L 54.375 34.316 A 17.304 17.304 0 0 0 54.95 33.144 A 21.897 21.897 0 0 0 55.371 32.129 A 27.411 27.411 0 0 0 56.025 30.23 A 31.026 31.026 0 0 0 56.221 29.561 Q 56.602 28.203 56.904 26.758 A 46.392 46.392 0 0 0 57.412 23.896 A 44.06 44.06 0 0 0 57.696 21.478 A 40.026 40.026 0 0 0 57.725 21.143 A 34.513 34.513 0 0 0 57.811 19.696 A 27.439 27.439 0 0 0 57.832 18.652 A 22.55 22.55 0 0 0 57.809 17.658 A 27.548 27.548 0 0 0 57.773 17.021 Q 57.715 16.152 57.529 15.283 A 10.77 10.77 0 0 0 57.031 13.613 A 5.007 5.007 0 0 0 56.447 12.522 A 4.535 4.535 0 0 0 56.201 12.207 A 4.009 4.009 0 0 0 54.951 11.23 Q 54.219 10.859 53.223 10.859 A 3.701 3.701 0 0 0 52.199 10.996 A 3.173 3.173 0 0 0 51.484 11.299 Q 50.723 11.738 50.137 12.451 A 7.181 7.181 0 0 0 49.323 13.69 A 8.31 8.31 0 0 0 49.131 14.082 A 12.31 12.31 0 0 0 48.447 15.967 A 13.764 13.764 0 0 0 48.082 17.754 A 12.652 12.652 0 0 0 48.066 17.871 A 16.724 16.724 0 0 0 47.986 18.654 Q 47.956 19.043 47.951 19.392 A 9.798 9.798 0 0 0 47.949 19.551 L 47.949 30.859 L 41.328 30.859 L 41.328 0 L 47.93 0 L 47.93 11.621 A 9.199 9.199 0 0 1 50.052 9.393 A 8.548 8.548 0 0 1 51.045 8.76 A 8.335 8.335 0 0 1 54.823 7.759 A 9.848 9.848 0 0 1 55.137 7.754 A 12.227 12.227 0 0 1 57.072 7.9 Q 58.204 8.081 59.157 8.489 A 7.678 7.678 0 0 1 59.219 8.516 A 8.045 8.045 0 0 1 61.537 10.031 A 7.547 7.547 0 0 1 62.109 10.635 A 8.671 8.671 0 0 1 63.595 13.176 A 10.271 10.271 0 0 1 63.828 13.857 A 13.165 13.165 0 0 1 64.339 16.584 A 16.026 16.026 0 0 1 64.395 17.93 Q 64.395 20.215 63.838 22.695 Q 63.281 25.176 62.285 27.559 Q 61.289 29.941 59.902 32.041 A 20.527 20.527 0 0 1 57.965 34.549 A 17.452 17.452 0 0 1 56.855 35.664 Z M 103.34 28.164 L 103.34 41.27 L 96.738 41.27 L 96.738 8.301 L 99.277 8.301 L 102.207 13.203 A 8.253 8.253 0 0 1 103.389 10.967 A 8.054 8.054 0 0 1 105.127 9.248 Q 106.113 8.535 107.295 8.145 A 7.882 7.882 0 0 1 109.785 7.754 A 12.392 12.392 0 0 1 112.352 8.009 A 9.931 9.931 0 0 1 114.395 8.672 Q 116.426 9.59 117.832 11.182 Q 119.238 12.773 119.98 14.922 Q 120.723 17.07 120.723 19.531 A 14.449 14.449 0 0 1 120.306 23.043 A 13.017 13.017 0 0 1 119.98 24.141 A 11.251 11.251 0 0 1 118.415 27.158 A 10.416 10.416 0 0 1 117.832 27.881 Q 116.426 29.473 114.395 30.391 A 10.268 10.268 0 0 1 111.493 31.2 A 13.043 13.043 0 0 1 109.785 31.309 A 8.786 8.786 0 0 1 107.225 30.944 A 7.947 7.947 0 0 1 106.162 30.537 A 7.169 7.169 0 0 1 103.679 28.598 A 8.638 8.638 0 0 1 103.34 28.164 Z M 165.508 24.297 L 168.359 25.352 A 8.187 8.187 0 0 1 166.592 28.018 A 10.189 10.189 0 0 1 164.053 29.873 Q 162.637 30.605 161.045 30.957 A 14.592 14.592 0 0 1 157.891 31.309 Q 155.313 31.309 153.125 30.439 A 11.264 11.264 0 0 1 149.76 28.388 A 10.724 10.724 0 0 1 149.355 28.008 A 11.187 11.187 0 0 1 146.903 24.345 A 12.722 12.722 0 0 1 146.875 24.277 A 11.922 11.922 0 0 1 146.011 20.523 A 14.146 14.146 0 0 1 145.977 19.531 A 12.919 12.919 0 0 1 146.363 16.324 A 11.348 11.348 0 0 1 146.875 14.785 A 11.255 11.255 0 0 1 149.148 11.265 A 10.826 10.826 0 0 1 149.355 11.055 Q 150.938 9.492 153.125 8.623 A 12.447 12.447 0 0 1 156.938 7.784 A 14.678 14.678 0 0 1 157.891 7.754 Q 159.141 7.754 160.449 7.93 A 15.591 15.591 0 0 1 162.988 8.486 A 12.283 12.283 0 0 1 165.312 9.473 A 7.416 7.416 0 0 1 167.217 10.967 Q 168.027 11.855 168.506 13.027 A 6.33 6.33 0 0 1 168.905 14.536 A 8.301 8.301 0 0 1 168.984 15.703 A 7.325 7.325 0 0 1 168.872 17.014 A 5.669 5.669 0 0 1 168.535 18.174 Q 168.086 19.258 167.314 20.078 Q 166.543 20.898 165.527 21.465 A 11.503 11.503 0 0 1 163.359 22.393 A 13.75 13.75 0 0 1 160.986 22.91 Q 159.766 23.066 158.613 23.066 A 20.278 20.278 0 0 1 155.723 22.861 A 16.934 16.934 0 0 1 152.91 22.207 Q 153.125 23.496 153.594 24.658 A 6.971 6.971 0 0 0 154.539 26.324 A 6.409 6.409 0 0 0 154.844 26.689 A 5.551 5.551 0 0 0 156.557 27.968 A 6.425 6.425 0 0 0 156.768 28.066 Q 157.91 28.574 159.473 28.574 Q 160.508 28.574 161.445 28.262 A 6.306 6.306 0 0 0 163.164 27.383 Q 163.945 26.816 164.541 26.035 A 7.056 7.056 0 0 0 165.508 24.297 Z M 138.398 6.328 L 138.398 30.859 L 130.645 30.859 L 130.645 6.328 L 122.988 6.328 L 122.988 2.734 L 146.055 2.734 L 146.055 6.328 L 138.398 6.328 Z M 195.82 8.301 L 195.82 30.859 L 189.219 30.859 L 189.219 28.164 A 7.731 7.731 0 0 1 187.578 29.833 A 6.897 6.897 0 0 1 186.396 30.537 A 8.302 8.302 0 0 1 183.277 31.296 A 9.784 9.784 0 0 1 182.773 31.309 A 12.392 12.392 0 0 1 180.206 31.053 A 9.931 9.931 0 0 1 178.164 30.391 Q 176.133 29.473 174.727 27.881 Q 173.32 26.289 172.578 24.141 Q 171.836 21.992 171.836 19.531 A 14.449 14.449 0 0 1 172.252 16.02 A 13.017 13.017 0 0 1 172.578 14.922 A 11.251 11.251 0 0 1 174.143 11.905 A 10.416 10.416 0 0 1 174.727 11.182 Q 176.133 9.59 178.164 8.672 A 10.268 10.268 0 0 1 181.066 7.862 A 13.043 13.043 0 0 1 182.773 7.754 Q 184.082 7.754 185.264 8.145 Q 186.445 8.535 187.432 9.248 Q 188.418 9.961 189.17 10.967 A 8.253 8.253 0 0 1 190.352 13.203 L 193.281 8.301 L 195.82 8.301 Z M 92.336 21.947 A 11.723 11.723 0 0 0 92.578 19.531 A 12.642 12.642 0 0 0 92.571 19.1 A 11.172 11.172 0 0 0 92.109 16.24 A 11.536 11.536 0 0 0 90.811 13.379 Q 89.98 12.07 88.809 11.025 A 12.423 12.423 0 0 0 86.24 9.258 A 13.45 13.45 0 0 0 83.252 8.145 Q 81.66 7.754 79.98 7.754 Q 78.301 7.754 76.719 8.145 A 13.492 13.492 0 0 0 73.74 9.258 A 12.423 12.423 0 0 0 71.172 11.025 A 11.124 11.124 0 0 0 69.17 13.379 A 11.536 11.536 0 0 0 67.871 16.24 A 10.565 10.565 0 0 0 67.712 16.829 A 11.547 11.547 0 0 0 67.402 19.531 A 12.642 12.642 0 0 0 67.41 19.963 A 11.172 11.172 0 0 0 67.871 22.822 A 11.536 11.536 0 0 0 69.17 25.684 Q 70 26.992 71.172 28.037 A 12.423 12.423 0 0 0 73.74 29.805 A 13.492 13.492 0 0 0 76.719 30.918 A 13.556 13.556 0 0 0 79.98 31.309 Q 81.66 31.309 83.252 30.918 A 13.45 13.45 0 0 0 86.24 29.805 A 12.423 12.423 0 0 0 88.809 28.037 A 11.124 11.124 0 0 0 90.811 25.684 A 11.577 11.577 0 0 0 92.109 22.832 A 10.4 10.4 0 0 0 92.336 21.947 Z M 7.754 2.734 L 7.754 30.859 L 0 30.859 L 0 2.734 L 7.754 2.734 Z M 85.859 19.531 A 18.413 18.413 0 0 0 85.809 18.191 A 21.835 21.835 0 0 0 85.752 17.549 A 14.373 14.373 0 0 0 85.391 15.498 Q 85.137 14.492 84.697 13.564 A 6.554 6.554 0 0 0 83.923 12.305 A 5.877 5.877 0 0 0 83.613 11.943 Q 82.969 11.25 82.07 10.83 A 4.371 4.371 0 0 0 80.9 10.479 A 5.853 5.853 0 0 0 79.98 10.41 A 5.112 5.112 0 0 0 78.911 10.518 A 4.074 4.074 0 0 0 77.969 10.84 A 5.105 5.105 0 0 0 76.436 11.982 A 6.434 6.434 0 0 0 75.426 13.459 A 7.287 7.287 0 0 0 75.342 13.633 Q 74.902 14.57 74.629 15.576 Q 74.355 16.582 74.238 17.607 A 18.432 18.432 0 0 0 74.139 18.81 A 14.962 14.962 0 0 0 74.121 19.531 A 15.717 15.717 0 0 0 74.167 20.704 A 19.344 19.344 0 0 0 74.238 21.455 Q 74.355 22.48 74.629 23.496 Q 74.902 24.512 75.342 25.439 Q 75.781 26.367 76.436 27.08 A 5.105 5.105 0 0 0 77.969 28.223 A 4.203 4.203 0 0 0 79.264 28.606 A 5.376 5.376 0 0 0 79.98 28.652 Q 81.152 28.652 82.051 28.232 A 4.975 4.975 0 0 0 83.604 27.109 A 6.239 6.239 0 0 0 84.674 25.517 A 6.966 6.966 0 0 0 84.687 25.488 Q 85.117 24.57 85.381 23.555 Q 85.645 22.539 85.752 21.504 A 20.102 20.102 0 0 0 85.849 20.127 A 17.184 17.184 0 0 0 85.859 19.531 Z M 189.18 19.531 A 19.701 19.701 0 0 0 189.138 18.277 A 23.206 23.206 0 0 0 189.092 17.676 Q 189.004 16.699 188.789 15.742 A 9.99 9.99 0 0 0 188.193 13.916 A 5.877 5.877 0 0 0 187.254 12.415 A 5.576 5.576 0 0 0 187.217 12.373 A 4.329 4.329 0 0 0 185.781 11.309 A 4.101 4.101 0 0 0 184.688 10.982 A 5.494 5.494 0 0 0 183.828 10.918 A 5.213 5.213 0 0 0 182.879 11 A 3.817 3.817 0 0 0 181.895 11.318 Q 181.074 11.719 180.488 12.393 A 5.882 5.882 0 0 0 179.607 13.756 A 6.683 6.683 0 0 0 179.521 13.945 A 10.256 10.256 0 0 0 178.926 15.781 Q 178.711 16.738 178.623 17.705 A 21.653 21.653 0 0 0 178.548 18.872 A 18.024 18.024 0 0 0 178.535 19.531 A 19.069 19.069 0 0 0 178.569 20.651 A 23.225 23.225 0 0 0 178.623 21.367 Q 178.711 22.344 178.926 23.301 A 10.256 10.256 0 0 0 179.521 25.137 A 6.071 6.071 0 0 0 180.276 26.43 A 5.556 5.556 0 0 0 180.488 26.689 Q 181.074 27.363 181.895 27.764 A 3.833 3.833 0 0 0 182.91 28.087 A 5.243 5.243 0 0 0 183.828 28.164 A 4.194 4.194 0 0 0 184.844 28.046 A 3.464 3.464 0 0 0 185.635 27.744 A 4.684 4.684 0 0 0 187.021 26.621 A 6.788 6.788 0 0 0 187.922 25.241 A 7.661 7.661 0 0 0 188.027 25.02 A 11.659 11.659 0 0 0 188.691 23.164 Q 188.945 22.207 189.063 21.26 A 16.456 16.456 0 0 0 189.15 20.354 A 12.185 12.185 0 0 0 189.18 19.531 Z M 114.023 19.531 A 18.877 18.877 0 0 0 113.989 18.415 A 22.654 22.654 0 0 0 113.936 17.705 Q 113.848 16.738 113.633 15.781 A 10.256 10.256 0 0 0 113.037 13.945 A 6.071 6.071 0 0 0 112.283 12.652 A 5.556 5.556 0 0 0 112.07 12.393 Q 111.484 11.719 110.654 11.318 A 3.971 3.971 0 0 0 109.521 10.975 A 5.24 5.24 0 0 0 108.73 10.918 A 5.543 5.543 0 0 0 107.797 10.993 Q 107.252 11.086 106.797 11.295 A 3.506 3.506 0 0 0 106.768 11.309 Q 105.938 11.699 105.342 12.373 A 5.856 5.856 0 0 0 104.377 13.889 A 6.538 6.538 0 0 0 104.365 13.916 A 9.99 9.99 0 0 0 103.77 15.742 Q 103.555 16.699 103.467 17.676 A 21.83 21.83 0 0 0 103.387 18.972 A 18.516 18.516 0 0 0 103.379 19.531 A 12.185 12.185 0 0 0 103.408 20.354 A 16.456 16.456 0 0 0 103.496 21.26 Q 103.613 22.207 103.867 23.164 A 11.659 11.659 0 0 0 104.531 25.02 A 7.004 7.004 0 0 0 105.338 26.374 A 6.4 6.4 0 0 0 105.537 26.621 Q 106.133 27.324 106.924 27.744 A 3.59 3.59 0 0 0 108.177 28.131 A 4.496 4.496 0 0 0 108.73 28.164 A 5.213 5.213 0 0 0 109.679 28.082 A 3.817 3.817 0 0 0 110.664 27.764 Q 111.484 27.363 112.07 26.689 A 5.882 5.882 0 0 0 112.951 25.327 A 6.683 6.683 0 0 0 113.037 25.137 A 10.256 10.256 0 0 0 113.633 23.301 Q 113.848 22.344 113.936 21.367 A 22.12 22.12 0 0 0 114.011 20.192 A 18.136 18.136 0 0 0 114.023 19.531 Z M 152.715 20.156 A 26.231 26.231 0 0 0 155.137 20.586 A 19.058 19.058 0 0 0 157.578 20.742 A 11.971 11.971 0 0 0 159.08 20.652 A 9.835 9.835 0 0 0 159.971 20.498 A 5.694 5.694 0 0 0 161.119 20.118 A 4.704 4.704 0 0 0 161.885 19.678 A 3.951 3.951 0 0 0 163.073 18.321 A 4.67 4.67 0 0 0 163.164 18.145 A 4.28 4.28 0 0 0 163.501 17.144 Q 163.6 16.675 163.625 16.132 A 8.124 8.124 0 0 0 163.633 15.762 Q 163.633 14.609 163.32 13.652 A 4.737 4.737 0 0 0 162.78 12.514 A 4.191 4.191 0 0 0 162.393 12.012 A 4.199 4.199 0 0 0 160.963 10.984 A 4.844 4.844 0 0 0 160.879 10.947 A 4.669 4.669 0 0 0 159.775 10.639 A 6.372 6.372 0 0 0 158.789 10.566 A 5.198 5.198 0 0 0 157.639 10.689 A 4.283 4.283 0 0 0 156.787 10.977 A 5.194 5.194 0 0 0 155.225 12.08 A 6.719 6.719 0 0 0 154.195 13.465 A 7.589 7.589 0 0 0 154.072 13.691 A 11.725 11.725 0 0 0 153.281 15.605 A 12.105 12.105 0 0 0 152.832 17.617 A 15.489 15.489 0 0 0 152.715 18.841 A 12.711 12.711 0 0 0 152.695 19.531 L 152.695 19.844 Q 152.695 20 152.715 20.156 Z" vector-effect="non-scaling-stroke"/></g></svg>